<?xml version="1.0" encoding="utf-8"?>
<!-- Generator: Adobe Illustrator 15.1.0, SVG Export Plug-In . SVG Version: 6.00 Build 0)  -->
<!DOCTYPE svg PUBLIC "-//W3C//DTD SVG 1.1//EN" "http://www.w3.org/Graphics/SVG/1.1/DTD/svg11.dtd">
<svg version="1.1" id="Ebene_1" xmlns="http://www.w3.org/2000/svg" xmlns:xlink="http://www.w3.org/1999/xlink" x="0px" y="0px"
	 width="236.949px" height="222.133px" viewBox="0 0 236.949 222.133" enable-background="new 0 0 236.949 222.133"
	 xml:space="preserve">
<path fill="#DD6124" d="M236.512,167.908c-0.225-0.262-0.558-0.417-0.908-0.417H1.653c-0.349,0-0.68,0.151-0.908,0.417
	c-0.228,0.262-0.33,0.613-0.279,0.961c0.034,0.218,3.562,21.881,30.951,21.881H205.84c27.387,0,30.914-21.663,30.952-21.881
	C236.841,168.521,236.738,168.169,236.512,167.908z M136.223,183.165h-35.189v-8.092h35.189V183.165z"/>
<path fill="#DD6124" d="M201.014,52.51h-43.814c0.777,1.669,16.324,34.727,16.324,34.727s-11.104,22.008-18.455,37.465
	c2.547,6.282,4.91,12.074,7.082,17.378h38.863V52.51z M125.242,35.522c0.568,1.221,23.639,50.331,23.639,50.331
	s-11.105,22.009-18.455,37.465c2.771,6.835,12.311,30.075,14.637,35.75H24.569c-2.679,0-4.854-2.175-4.854-4.854V40.375
	c0-2.68,2.174-4.854,4.854-4.854H125.242 M138.434,35.522h74.715c2.68,0,4.854,2.174,4.854,4.854v113.839
	c0,2.679-2.174,4.854-4.854,4.854h-55.061h0.062c-1.978-4.839-14.172-34.693-14.172-34.693s11.666-24.492,18.207-37.289
	C151.988,64.905,143.438,46,138.434,35.522 M36.705,142.08h90.396c-2.138-5.225-7.765-19.09-7.765-19.09
	s11.563-23.946,18.209-37.287c-3.162-6.634-14.344-30.607-15.552-33.192h-85.29L36.705,142.08L36.705,142.08z"/>
</svg>
